<svg id="Face" xmlns="http://www.w3.org/2000/svg" xmlns:xlink="http://www.w3.org/1999/xlink" viewBox="0 0 122.49 116.23"><defs><style>.cls-1{fill:#744faf;}.cls-2{fill:url(#linear-gradient);}</style><linearGradient id="linear-gradient" x1="21.69" y1="116.71" x2="64.05" y2="116.71" gradientUnits="userSpaceOnUse"><stop offset="0" stop-color="#ff4215"/><stop offset="0.13" stop-color="#f73c14"/><stop offset="0.32" stop-color="#e22c10"/><stop offset="0.56" stop-color="#bf1209"/><stop offset="0.71" stop-color="#a60005"/></linearGradient></defs><title>Fleek_SkinCare_Logo</title><path class="cls-1" d="M50.13,31.62a34.66,34.66,0,0,0-3.29-5.13,35.9,35.9,0,0,0-7.75-7.4q-.6-.42-1.21-.82a47.21,47.21,0,0,0-9.4-4.35c5.6,0,12.63,3.29,17.31,7.1s8.83,11.42,9,13.15a3.49,3.49,0,0,1,0,.87,1.48,1.48,0,0,1-1.15,1.22,1.35,1.35,0,0,1-1.45-.75Z" transform="translate(-16.01 -13.92)"/><path class="cls-1" d="M138.23,52.47c.24.09.38-.27.16-.39-9.93-5.49-20.33-9.51-32.29-9.92a42,42,0,0,0-5.13.15c-3.49.31-6.88.62-10.06,2.42a1.91,1.91,0,0,0-1,1.59c0,1.47,1.42,1,2.35.87,1.94-.36,3.89-.68,5.85-.92a82,82,0,0,1,10.2-.78C121.83,45.48,130.59,49.5,138.23,52.47Z" transform="translate(-16.01 -13.92)"/><path class="cls-1" d="M30.9,22.92s-1,13.85-7.67,12.46c-1.67-.35-6-2.42-7-3.63s2.47,5.36,6.43,6.4C21.21,39,21,39.53,19,39.7a4.68,4.68,0,0,0,4.49,0C21.21,42,20.52,43,17.58,43.86c5.71-.17,6.75-.52,9-1.38-1.21,2.6-1.51,2.6-4,3.81,3.09-.17,4.48-.35,5.86-1.38a22.06,22.06,0,0,1-8.65,5C25,49,28,48.53,30.9,48.7c-2.08,1.38-4.5,1.73-5,2.08,6.06-.69,7.79-1.56,9.86-1a7.74,7.74,0,0,1-3.46,1c4,0,6.56-.17,7.87-1-2.5,1.73-4.92,2.08-3.71,1.9,4.5-.52,6.58-1,10-1-2.77-1.38-19.21-6.92-19-14C29.52,33.47,30.47,31.59,30.9,22.92Z" transform="translate(-16.01 -13.92)"/><path class="cls-2" d="M35.19,116.41c-.83-2.94-7.33-6.55-7.33-6.55a34,34,0,0,0,7.87,2.53,4.72,4.72,0,0,1,2.4.9c3.26,2.51,13.08,7.79,18.39,8.32C45.87,121,38.91,114.73,35.19,116.41Zm28.38,6.79a.63.63,0,0,0,0-1.23,7.4,7.4,0,0,1-1.09-.39,20.11,20.11,0,0,1-6.3-4.48c-2.1-2.34-4.82-5.56-7.16-7-1.56-1-6.3-2.56-9.67-2.07a1.72,1.72,0,0,1-1.75-.89,8.65,8.65,0,0,0-5.65-3.86c-2.21-.26-6,.91-7.14.91l-.7,0a1.06,1.06,0,0,0-1,1.39,9.64,9.64,0,0,0,3,3.49c-2.94,0-4.35,3.14-4.35,4.91,0,3,2.74,9.63,10.32,13,7.37,3.28,14.31,4.45,21.23,1.34,1.28-.57,3.64-2.11,4.87-2.79A40.32,40.32,0,0,1,63.57,123.21Z" transform="translate(-16.01 -13.92)"/><path class="cls-1" d="M38.3,42.43s-7.66-3-10.38-6.57c1.49-2.86,3-12.94,3-12.94s-1.25,9.79-.65,12.24C30.74,37.17,33.11,39.18,38.3,42.43Z" transform="translate(-16.01 -13.92)"/><path class="cls-1" d="M120,73.76c1.14,1.3,5.72,2.43,8.93,2.54-4-1.5-5.91-4.41-5.75-5.45a11.06,11.06,0,0,1,4.72-3.75,134.34,134.34,0,0,1-14.67.72,22.52,22.52,0,0,1-9-2.34c-1.47-.61-.87.61-.43,1a20,20,0,0,0,7.61,2.25c3,.38,10.12-.08,13.24-.5-6.29,1.84-22.68,5.93-30.9-5.12-.35-.35,1-8.13,1-8.13s-2.6,8.83-6.23,8.65c-2.25-.35-6.06-1.21-6.06-1.21a31.49,31.49,0,0,1,5,1.9c-2.25.52-3.63.69-5,1a20,20,0,0,0,5.36,0c-2.22,1.75-3.71,3.46-4.92,4a44.37,44.37,0,0,1,7.5-1.14A34.47,34.47,0,0,1,88.62,74c1.85-1.51,3.9-3.05,4.24-4-.25,2-.27,3.53-1.73,5.71,4.2-4.73,5.68-2.65,3.81,2.08,3.22-4.34,4.43-4.86,4.92,1.32.53-2.31.9-3.83,1.4-4.07a1.05,1.05,0,0,1,1.22.42c.42.91.34,2.32.6,4.11a12.9,12.9,0,0,1,1.56-4.62,27.47,27.47,0,0,1,1,5.27c.5-2.41,1.27-4.4,1.4-5a11.18,11.18,0,0,1,2.52,4c-.07-1-.09-1.9-.1-2.46a7.22,7.22,0,0,1,.09-1.3l.12-.73a6.13,6.13,0,0,0,1,1.7L113,79.28a12.64,12.64,0,0,1-.29-3.49,11.61,11.61,0,0,0,5.52,3.37A7.36,7.36,0,0,1,116.05,75a9.41,9.41,0,0,0,7.4,2.79C120.6,76.69,119.79,75.18,120,73.76Z" transform="translate(-16.01 -13.92)"/><path class="cls-1" d="M51.64,97.48a2.18,2.18,0,0,1-1.24-.29c-.54-.31-.94-.83-1.47-1.15a3.57,3.57,0,0,0-2.44-.32,2.56,2.56,0,0,0-1.15.44c-.71.55-.87,1.64-1.63,2.13a1.47,1.47,0,0,1-1.38.11,2.2,2.2,0,0,1-1-1.94,2.86,2.86,0,0,0-.1-1c-.41-1-2.35-1-3.88-2-2.41-1.7-2.89-5.3-2.31-8a1.15,1.15,0,0,1,2.21-.14c.19.62.19,1.47.37,2.46.5,2.65,3.14,5.22,8.8,4.95,4.5-.22,7.1.83,7.1,2.75A2,2,0,0,1,51.64,97.48Z" transform="translate(-16.01 -13.92)"/></svg>